<?xml version="1.0" encoding="UTF-8"?>
<svg width="120px" height="120px" viewBox="0 0 120 120" version="1.1" xmlns="http://www.w3.org/2000/svg" xmlns:xlink="http://www.w3.org/1999/xlink">
    <!-- Generator: sketchtool 45.1 (43504) - http://www.bohemiancoding.com/sketch -->
    <title>6F6A3C9B-214A-4EB5-A563-2FEA08D50849</title>
    <desc>Created with sketchtool.</desc>
    <defs>
        <rect id="path-1" x="0" y="0" width="80" height="80" rx="6"></rect>
        <filter x="-43.8%" y="-31.2%" width="187.5%" height="187.5%" filterUnits="objectBoundingBox" id="filter-2">
            <feOffset dx="0" dy="10" in="SourceAlpha" result="shadowOffsetOuter1"></feOffset>
            <feGaussianBlur stdDeviation="10" in="shadowOffsetOuter1" result="shadowBlurOuter1"></feGaussianBlur>
            <feColorMatrix values="0 0 0 0 0   0 0 0 0 0   0 0 0 0 0  0 0 0 0.2 0" type="matrix" in="shadowBlurOuter1"></feColorMatrix>
        </filter>
        <filter x="-28.2%" y="-20.2%" width="156.5%" height="156.5%" filterUnits="objectBoundingBox" id="filter-3">
            <feOffset dx="0" dy="5" in="SourceAlpha" result="shadowOffsetOuter1"></feOffset>
            <feGaussianBlur stdDeviation="5" in="shadowOffsetOuter1" result="shadowBlurOuter1"></feGaussianBlur>
            <feColorMatrix values="0 0 0 0 0   0 0 0 0 0   0 0 0 0 0  0 0 0 0.2 0" type="matrix" in="shadowBlurOuter1" result="shadowMatrixOuter1"></feColorMatrix>
            <feMerge>
                <feMergeNode in="shadowMatrixOuter1"></feMergeNode>
                <feMergeNode in="SourceGraphic"></feMergeNode>
            </feMerge>
        </filter>
    </defs>
    <g id="Page-1" stroke="none" stroke-width="1" fill="none" fill-rule="evenodd">
        <g id="Landing-Page-Desktop-1440" transform="translate(-480.000000, -1585.000000)">
            <g id="Problems" transform="translate(500.000000, 1309.000000)">
                <g id="Group-11" transform="translate(0.000000, 285.000000)">
                    <g id="Group-8" transform="translate(0.000000, 1.000000)">
                        <g id="Rectangle-4">
                            <use fill="black" fill-opacity="1" filter="url(#filter-2)" xlink:href="#path-1"></use>
                            <use fill="#FFFFFF" fill-rule="evenodd" xlink:href="#path-1"></use>
                        </g>
                        <g id="Group-5" filter="url(#filter-3)" transform="translate(9.000000, 9.000000)" fill="#00CE7A">
                            <path d="M31,58 C16.0883118,58 4,45.9116882 4,31 C4,16.0883118 16.0883118,4 31,4 C45.9116882,4 58,16.0883118 58,31 C58,45.9116882 45.9116882,58 31,58 Z M31,50 C41.4934102,50 50,41.4934102 50,31 C50,20.5065898 41.4934102,12 31,12 C20.5065898,12 12,20.5065898 12,31 C12,41.4934102 20.5065898,50 31,50 Z" id="Oval-5" fill-rule="nonzero"></path>
                            <rect id="Rectangle-13" x="46" y="26" width="16" height="10"></rect>
                            <rect id="Rectangle-13" x="0" y="26" width="16" height="10"></rect>
                            <rect id="Rectangle-13" transform="translate(32.000000, 8.000000) rotate(-90.000000) translate(-32.000000, -8.000000) " x="24" y="3" width="16" height="10"></rect>
                            <rect id="Rectangle-13" transform="translate(31.000000, 54.000000) rotate(-90.000000) translate(-31.000000, -54.000000) " x="23" y="49" width="16" height="10"></rect>
                            <circle id="Oval-4" cx="31" cy="31" r="7"></circle>
                        </g>
                    </g>
                </g>
            </g>
        </g>
    </g>
</svg>